<svg width="27" height="27" viewBox="0 0 27 27" fill="none" xmlns="http://www.w3.org/2000/svg"><path fill-rule="evenodd" clip-rule="evenodd" d="M3 1H24C25.1046 1 26 1.89543 26 3V24C26 25.1046 25.1046 26 24 26H3C1.89543 26 1 25.1046 1 24V3C1 1.89543 1.89543 1 3 1ZM0 3C0 1.34315 1.34315 0 3 0H24C25.6569 0 27 1.34315 27 3V24C27 25.6569 25.6569 27 24 27H3C1.34315 27 0 25.6569 0 24V3ZM12.682 10.52L10.135 17H10.765L11.53 14.966H14.482L15.229 17H15.859L13.375 10.52H12.682ZM13.006 11.042L14.275 14.444H11.737L13.006 11.042Z" fill="#363636"/></svg>
