<svg width="27" height="27" viewBox="0 0 27 27" fill="none" xmlns="http://www.w3.org/2000/svg">
<rect x="0.5" y="0.5" width="26" height="26" rx="2.5" stroke="#363636"/>
<path d="M13.375 8C13.375 7.79289 13.2071 7.625 13 7.625C12.7929 7.625 12.625 7.79289 12.625 8H13.375ZM12.7348 18.2652C12.8813 18.4116 13.1187 18.4116 13.2652 18.2652L15.6517 15.8787C15.7981 15.7322 15.7981 15.4948 15.6517 15.3483C15.5052 15.2019 15.2678 15.2019 15.1213 15.3483L13 17.4697L10.8787 15.3483C10.7322 15.2019 10.4948 15.2019 10.3483 15.3483C10.2019 15.4948 10.2019 15.7322 10.3483 15.8787L12.7348 18.2652ZM12.625 8V18H13.375V8H12.625Z" fill="black"/>
</svg>
