<svg width="34" height="30" viewBox="0 0 34 30" fill="none" xmlns="http://www.w3.org/2000/svg"><path d="M3.56763 29.9994L14.0679 14.7789L4.01845 1.90735e-06H13.8711L19.0124 8.70706L24.0349 1.90735e-06H33.6046L23.4986 14.6414L33.9988 29.9994H23.9783L18.6823 20.9638L13.3379 29.9994H3.56763Z" fill="#6A6A6A"/><path opacity="0.48" d="M2.59547 0L12.6977 14.7691L2.23645 30H3.12551L13.6654 14.7691L3.53043 0H2.59547Z" fill="#6A6A6A"/><path opacity="0.48" d="M1.36561 0L11.4678 14.7691L1.00659 30H1.89565L12.4355 14.7691L2.30057 0H1.36561Z" fill="#6A6A6A"/><path opacity="0.48" d="M0.845637 0L10.9479 14.7691L0.38916 30H0.658268L11.1981 14.7691L1.06319 0H0.845637Z" fill="#6A6A6A"/><path opacity="0.48" d="M0.456477 0L10.5587 14.7691L0 30H0.269108L10.8083 14.7691L0.673398 0H0.456477Z" fill="#6A6A6A"/></svg>
