<svg width="27" height="27" viewBox="0 0 27 27" fill="none" xmlns="http://www.w3.org/2000/svg"><path fill-rule="evenodd" clip-rule="evenodd" d="M3 1H24C25.1046 1 26 1.89543 26 3V24C26 25.1046 25.1046 26 24 26H3C1.89543 26 1 25.1046 1 24V3C1 1.89543 1.89543 1 3 1ZM0 3C0 1.34315 1.34315 0 3 0H24C25.6569 0 27 1.34315 27 3V24C27 25.6569 25.6569 27 24 27H3C1.34315 27 0 25.6569 0 24V3ZM10.729 9.52V16H12.943C13.159 16 13.372 15.991 13.582 15.973C13.792 15.949 13.993 15.91 14.185 15.856C14.383 15.796 14.569 15.715 14.743 15.613C14.923 15.511 15.088 15.376 15.238 15.208C15.388 15.046 15.511 14.869 15.607 14.677C15.709 14.479 15.79 14.275 15.85 14.065C15.91 13.849 15.952 13.63 15.976 13.408C16.006 13.186 16.021 12.967 16.021 12.751C16.021 12.535 16.003 12.301 15.967 12.049C15.937 11.791 15.88 11.539 15.796 11.293C15.718 11.041 15.61 10.804 15.472 10.582C15.334 10.354 15.157 10.162 14.941 10.006C14.791 9.898 14.635 9.811 14.473 9.745C14.317 9.679 14.155 9.631 13.987 9.601C13.819 9.565 13.648 9.544 13.474 9.538C13.3 9.526 13.123 9.52 12.943 9.52H10.729ZM12.808 15.478H11.341V10.042H12.808C13.078 10.042 13.345 10.057 13.609 10.087C13.873 10.117 14.101 10.183 14.293 10.285C14.521 10.405 14.707 10.558 14.851 10.744C14.995 10.924 15.109 11.125 15.193 11.347C15.277 11.563 15.334 11.794 15.364 12.04C15.394 12.28 15.409 12.517 15.409 12.751C15.409 12.973 15.391 13.204 15.355 13.444C15.325 13.684 15.268 13.915 15.184 14.137C15.106 14.353 14.998 14.554 14.86 14.74C14.722 14.926 14.545 15.073 14.329 15.181C14.077 15.313 13.828 15.397 13.582 15.433C13.342 15.463 13.084 15.478 12.808 15.478Z" fill="#363636"/></svg>
