<svg width="35" height="30" viewBox="0 0 35 30" fill="none" xmlns="http://www.w3.org/2000/svg"><g clip-path="url(#clip0_143:3)"><path d="M34.5858 19.0613C34.5415 14.0114 32.7844 9.26549 29.6239 5.68073C26.392 2.01743 22.0918 -3.8147e-06 17.5085 -3.8147e-06C12.9251 -3.8147e-06 8.62238 2.01743 5.39301 5.68073C2.23763 9.26042 0.481331 13.9954 0.431151 19.036C0.150555 19.4413 0.000209661 19.9215 -6.10352e-05 20.4133V24.5453C-5.2262e-05 24.9489 0.101007 25.3462 0.294003 25.7015C0.486999 26.0567 0.765881 26.3588 1.1056 26.5804L2.96736 27.7931C3.16079 27.9188 3.38483 27.9903 3.61581 28C3.8468 28.0097 4.07612 27.9572 4.27952 27.8481C4.48292 27.739 4.65283 27.5773 4.77128 27.3802C4.88974 27.183 4.95233 26.9578 4.95243 26.7282V18.2295C4.95246 17.9999 4.88994 17.7746 4.77149 17.5774C4.65304 17.3803 4.48306 17.2186 4.27958 17.1095C4.07611 17.0004 3.84673 16.9481 3.61571 16.9579C3.38469 16.9678 3.16067 17.0395 2.96736 17.1655L2.17894 17.6789C2.88146 8.7225 9.48819 1.67711 17.5085 1.67711C25.5287 1.67711 32.1371 8.72841 32.8371 17.6899L32.0308 17.1655C31.8375 17.0398 31.6135 16.9683 31.3826 16.9586C31.1517 16.9489 30.9224 17.0013 30.719 17.1103C30.5157 17.2193 30.3457 17.3809 30.2272 17.5779C30.1087 17.7749 30.046 18 30.0457 18.2295V26.7249C30.0459 26.9544 30.1084 27.1797 30.2269 27.3768C30.3454 27.5739 30.5153 27.7356 30.7187 27.8447C30.9221 27.9538 31.1514 28.0063 31.3824 27.9966C31.6133 27.9869 31.8374 27.9155 32.0308 27.7897L33.8934 26.5771C34.2332 26.3554 34.5121 26.0534 34.7052 25.6981C34.8982 25.3429 34.9992 24.9456 34.9991 24.5419V20.4133C34.999 19.932 34.8552 19.4615 34.5858 19.0613Z" fill="#6A6A6A"/><path d="M27.8753 16.9552C27.574 16.9552 27.285 17.0741 27.0719 17.2857C26.8588 17.4972 26.7391 17.7842 26.7391 18.0834V26.6919C26.7391 26.9911 26.8588 27.2781 27.0719 27.4897C27.285 27.7013 27.574 27.8201 27.8753 27.8201C28.0246 27.8201 28.1723 27.7909 28.3102 27.7342C28.448 27.6775 28.5733 27.5944 28.6788 27.4897C28.7843 27.3849 28.868 27.2605 28.9251 27.1237C28.9822 26.9868 29.0116 26.8401 29.0116 26.6919V18.0834C29.0116 17.9353 28.9822 17.7886 28.9251 17.6517C28.868 17.5148 28.7843 17.3904 28.6788 17.2857C28.5733 17.1809 28.448 17.0978 28.3102 17.0411C28.1723 16.9844 28.0246 16.9552 27.8753 16.9552Z" fill="#6A6A6A"/><path d="M7.12552 16.9552C6.9763 16.9552 6.82856 16.9844 6.6907 17.0411C6.55284 17.0978 6.42756 17.1809 6.32205 17.2857C6.21653 17.3904 6.13284 17.5148 6.07574 17.6517C6.01864 17.7886 5.98926 17.9353 5.98926 18.0834V26.6919C5.98926 26.9911 6.10895 27.2781 6.32205 27.4897C6.53514 27.7013 6.82416 27.8201 7.12552 27.8201C7.42688 27.8201 7.7159 27.7013 7.929 27.4897C8.14209 27.2781 8.26181 26.9911 8.26181 26.6919V18.0834C8.26181 17.7842 8.14209 17.4972 7.929 17.2857C7.7159 17.0741 7.42688 16.9552 7.12552 16.9552Z" fill="#6A6A6A"/></g><path fill-rule="evenodd" clip-rule="evenodd" d="M28.4766 0.344201C28.8387 -0.0727309 29.4704 -0.117103 29.8873 0.245092C30.3042 0.607288 30.3486 1.2389 29.9864 1.65583L18.9668 14.3407L31.0393 28.2376C31.4015 28.6545 31.3572 29.2861 30.9402 29.6483C30.5233 30.0105 29.8917 29.9662 29.5295 29.5492L17.6422 15.8655L5.75494 29.5492C5.39274 29.9662 4.76113 30.0105 4.3442 29.6483C3.92727 29.2861 3.8829 28.6545 4.24509 28.2376L16.3176 14.3407L5.29802 1.65583C4.93583 1.2389 4.9802 0.607288 5.39713 0.245092C5.81406 -0.117103 6.44567 -0.0727309 6.80787 0.344201L17.6422 12.8159L28.4766 0.344201Z" fill="#6A6A6A"/><defs><clipPath id="clip0_143:3"><rect width="35" height="28" fill="white"/></clipPath></defs></svg>
