<svg width="19" height="19" viewBox="0 0 19 19" fill="none" xmlns="http://www.w3.org/2000/svg"><path d="M15.08 19H3.91997C2.88069 18.9988 1.88432 18.5854 1.14945 17.8506C0.414569 17.1157 0.00119293 16.1193 0 15.08V3.91996C0.00119293 2.88069 0.414569 1.88433 1.14945 1.14945C1.88432 0.414572 2.88069 0.00119293 3.91997 0H15.08C16.1193 0.00119293 17.1157 0.414572 17.8505 1.14945C18.5854 1.88433 18.9988 2.88069 19 3.91996V15.08C18.9988 16.1193 18.5854 17.1157 17.8505 17.8506C17.1157 18.5854 16.1193 18.9988 15.08 19ZM3.91997 1.04015C3.15644 1.04097 2.42443 1.34465 1.88454 1.88454C1.34465 2.42443 1.04097 3.15644 1.04015 3.91996V15.08C1.04097 15.8436 1.34465 16.5756 1.88454 17.1155C2.42443 17.6554 3.15644 17.959 3.91997 17.9599H15.08C15.8436 17.959 16.5756 17.6554 17.1155 17.1155C17.6554 16.5756 17.959 15.8436 17.9599 15.08V3.91996C17.959 3.15644 17.6554 2.42443 17.1155 1.88454C16.5756 1.34465 15.8436 1.04097 15.08 1.04015H3.91997Z" fill="#363636"/><path d="M9.5919 14.1838C7.06087 14.1838 5 12.124 5 9.5919C5 7.05983 7.05983 5 9.5919 5C12.124 5 14.1838 7.06087 14.1838 9.5919C14.1838 12.1229 12.124 14.1838 9.5919 14.1838ZM9.5919 6.04015C8.88943 6.04015 8.20273 6.24845 7.61865 6.63872C7.03457 7.02899 6.57933 7.5837 6.31051 8.2327C6.04168 8.88169 5.97135 9.59584 6.10839 10.2848C6.24544 10.9738 6.58371 11.6066 7.08043 12.1034C7.57715 12.6001 8.21001 12.9384 8.89899 13.0754C9.58796 13.2124 10.3021 13.1421 10.9511 12.8733C11.6001 12.6045 12.1548 12.1492 12.5451 11.5651C12.9353 10.9811 13.1436 10.2944 13.1436 9.5919C13.1425 8.65025 12.768 7.74749 12.1021 7.08164C11.4363 6.4158 10.5335 6.04125 9.5919 6.04015Z" fill="#363636"/><path d="M14.9927 2.9126H14.9924C14.2979 2.9126 13.7349 3.47562 13.7349 4.17014V4.17048C13.7349 4.865 14.2979 5.42802 14.9924 5.42802H14.9927C15.6873 5.42802 16.2503 4.865 16.2503 4.17048V4.17014C16.2503 3.47562 15.6873 2.9126 14.9927 2.9126Z" fill="#363636"/></svg>
