<svg width="27" height="27" viewBox="0 0 27 27" fill="none" xmlns="http://www.w3.org/2000/svg">
<rect x="0.5" y="0.5" width="26" height="26" rx="2.5" stroke="#363636"/>
<path d="M18 13.375C18.2071 13.375 18.375 13.2071 18.375 13C18.375 12.7929 18.2071 12.625 18 12.625V13.375ZM7.73483 12.7348C7.58839 12.8813 7.58839 13.1187 7.73483 13.2652L10.1213 15.6517C10.2678 15.7981 10.5052 15.7981 10.6517 15.6517C10.7981 15.5052 10.7981 15.2678 10.6517 15.1213L8.53033 13L10.6517 10.8787C10.7981 10.7322 10.7981 10.4948 10.6517 10.3483C10.5052 10.2019 10.2678 10.2019 10.1213 10.3483L7.73483 12.7348ZM18 12.625L8 12.625V13.375L18 13.375V12.625Z" fill="black"/>
</svg>
