<svg width="179" height="152" viewBox="0 0 179 152" fill="none" xmlns="http://www.w3.org/2000/svg"><g clip-path="url(#clip0)"><path d="M32.5337 0V7.13275H20.5177V40.2824H12.0696V7.13275H0V0H32.5337Z" fill="#696969"/><path d="M56.7612 10.6591C58.2304 11.2791 59.502 12.291 60.4382 13.5848C61.206 14.5913 61.7181 15.77 61.9305 17.0192C62.1105 18.1941 62.2011 20.1134 62.2023 22.7769V40.2823H54.2718V22.1431C54.2718 20.5376 54.0017 19.2423 53.4616 18.2572C52.7576 16.8682 51.4229 16.1737 49.4575 16.1737C47.4205 16.1737 45.8745 16.8624 44.8197 18.2399C43.7648 19.6173 43.2374 21.5852 43.2374 24.1433V40.291H35.4714V0.135376H43.2374V14.3471C44.358 12.6108 45.6553 11.404 47.1291 10.7269C48.5864 10.0466 50.175 9.69632 51.7824 9.70071C53.4897 9.67723 55.1839 10.0034 56.7612 10.6591Z" fill="#696969"/><path d="M87.4668 11.0968C89.5599 12.0468 91.3398 13.5754 92.5979 15.5036C93.8441 17.3489 94.6536 19.4554 94.9644 21.6623C95.1745 23.0316 95.2599 24.9994 95.2206 27.5657H73.5811C73.6966 30.5545 74.7318 32.6496 76.6868 33.8511C77.8721 34.5989 79.2991 34.9728 80.968 34.9728C82.7372 34.9728 84.1747 34.5173 85.2803 33.6063C85.944 33.0366 86.4873 32.3394 86.8782 31.5557H94.8068C94.5968 33.3233 93.6372 35.1175 91.9279 36.9383C89.2666 39.8322 85.5417 41.2791 80.7533 41.2791C76.8017 41.2791 73.3145 40.0573 70.2919 37.6137C67.2693 35.1702 65.7586 31.1946 65.7598 25.687C65.7598 20.5267 67.1239 16.5697 69.8522 13.8159C72.5805 11.0621 76.1207 9.68518 80.4729 9.68518C83.0581 9.6956 85.3894 10.1661 87.4668 11.0968ZM75.849 17.8267C74.7514 18.96 74.0618 20.4966 73.7802 22.4366H87.1586C87.0166 20.3681 86.3271 18.7991 85.0899 17.7295C83.8527 16.6599 82.3177 16.1246 80.485 16.1234C78.4884 16.1234 76.9419 16.6912 75.8455 17.8267H75.849Z" fill="#696969"/><path d="M3.21472 49.832H12.0125L27.9564 77.9203V49.832H35.7761V90.1144H27.3851L11.0344 61.533V90.1144H3.21472V49.832Z" fill="#696969"/><path d="M60.9801 60.9288C63.0732 61.8788 64.8531 63.4074 66.1112 65.3356C67.3575 67.1809 68.1669 69.2874 68.4777 71.4942C68.6878 72.8648 68.7732 74.8355 68.7339 77.4064H47.0945C47.2099 80.394 48.2451 82.4891 50.2001 83.6918C51.3866 84.4407 52.8136 84.8146 54.4813 84.8135C56.2505 84.8135 57.688 84.358 58.7936 83.447C59.4573 82.8773 60.0006 82.18 60.3915 81.3964H68.3202C68.1101 83.164 67.1505 84.9582 65.4413 86.779C62.781 89.6728 59.0562 91.1198 54.2666 91.1198C50.315 91.1198 46.8279 89.898 43.8053 87.4544C40.7827 85.0108 39.2719 81.0353 39.2731 75.5277C39.2731 70.3674 40.6372 66.4103 43.3655 63.6565C46.0938 60.9028 49.6341 59.5259 53.9862 59.5259C56.5783 59.5305 58.9096 59.9981 60.9801 60.9288ZM49.3623 67.6587C48.2647 68.7931 47.5722 70.3298 47.2849 72.2687H60.6633C60.5213 70.2013 59.8289 68.6322 58.5859 67.5615C57.3429 66.4908 55.8079 65.9554 53.981 65.9554C52.0005 65.9554 50.4621 66.5232 49.3657 67.6587H49.3623Z" fill="#696969"/><path d="M68.3132 90.1144L78.4492 75.0294L68.7547 60.3801H78.2639L83.2254 69.0096L88.0727 60.3801H97.3101L87.5551 74.8922L97.6927 90.1144H88.019L82.9069 81.1586L77.7463 90.1144H68.3132Z" fill="#696969"/><path d="M97.8536 66.1465V60.5903H102.008V52.2925H109.693V60.6007H114.516V66.1569H109.693V81.9C109.693 83.1212 109.847 83.8817 110.155 84.1815C110.463 84.4813 111.408 84.6318 112.989 84.633C113.226 84.633 113.476 84.633 113.739 84.6191C114.002 84.6052 114.258 84.5965 114.516 84.5774V90.3993L110.837 90.5347C107.167 90.6632 104.661 90.0265 103.317 88.6248C102.445 87.7323 102.008 86.3565 102.008 84.4975V66.1465H97.8536Z" fill="#696969"/><path d="M30.3541 112.235C29.717 109.485 28.1636 107.563 25.6938 106.469C24.2374 105.853 22.6695 105.546 21.0889 105.568C17.8575 105.568 15.203 106.79 13.1256 109.236C11.0482 111.682 10.0095 115.36 10.0095 120.269C10.0095 125.216 11.1359 128.717 13.3888 130.77C15.6416 132.824 18.2031 133.851 21.0734 133.852C23.8882 133.852 26.1964 133.042 27.998 131.421C29.7996 129.801 30.9075 127.678 31.3218 125.052H22.029V118.329H38.7606V139.946H33.2019L32.3571 134.911C30.7413 136.815 29.2883 138.158 27.998 138.938C25.7798 140.299 23.055 140.979 19.8235 140.978C14.5007 140.978 10.1405 139.13 6.74284 135.434C3.2009 131.719 1.42993 126.639 1.42993 120.194C1.42993 113.676 3.21879 108.45 6.79652 104.517C10.3742 100.584 15.1061 98.616 20.992 98.6136C26.0978 98.6136 30.1989 99.9118 33.2953 102.508C36.3918 105.105 38.1674 108.346 38.6221 112.232L30.3541 112.235Z" fill="#696969"/><path d="M56.4998 121.828C57.9436 121.646 58.9771 121.418 59.6004 121.144C60.7164 120.672 61.2744 119.934 61.2744 118.93C61.2744 117.711 60.8462 116.869 59.9899 116.402C59.1335 115.936 57.8773 115.704 56.2211 115.708C54.3607 115.708 53.0439 116.163 52.2706 117.074C51.7178 117.748 51.3497 118.659 51.1662 119.807H43.6685C43.8335 117.203 44.5635 115.061 45.8584 113.383C47.9196 110.76 51.4593 109.448 56.4773 109.448C59.7423 109.448 62.6431 110.095 65.1799 111.388C67.7166 112.681 68.9861 115.123 68.9884 118.713V132.376C68.9884 133.324 69.0063 134.473 69.0421 135.821C69.0975 136.841 69.2521 137.535 69.506 137.905C69.8006 138.302 70.1956 138.613 70.6503 138.806V139.953H62.204C61.9829 139.407 61.8182 138.839 61.7124 138.259C61.6223 137.731 61.5496 137.13 61.4942 136.457C60.4069 137.63 59.1506 138.634 57.767 139.434C56.0855 140.4 54.1853 140.882 52.0663 140.882C49.3623 140.882 47.1285 140.113 45.365 138.573C43.6016 137.034 42.7204 134.852 42.7216 132.029C42.7216 128.366 44.1394 125.715 46.975 124.075C48.5307 123.184 50.8182 122.547 53.8373 122.165L56.4998 121.828ZM61.2467 125.462C60.7712 125.762 60.2672 126.014 59.7423 126.214C59.0661 126.45 58.3711 126.629 57.6649 126.747L55.8974 127.075C54.2413 127.367 53.0514 127.722 52.3278 128.141C51.1056 128.852 50.4939 129.952 50.4927 131.44C50.4927 132.77 50.8667 133.732 51.6145 134.324C52.3933 134.927 53.3561 135.241 54.3394 135.212C56.0171 135.218 57.6556 134.702 59.0291 133.736C60.459 132.753 61.2011 130.959 61.2553 128.353L61.2467 125.462Z" fill="#696969"/><path d="M82.3044 139.947H74.5385V99.6642H82.3044V139.947Z" fill="#696969"/><path d="M96.4134 139.947H88.6492V99.6642H96.4134V139.947Z" fill="#696969"/><path d="M121.948 110.761C124.041 111.712 125.822 113.24 127.081 115.168C128.326 117.014 129.135 119.12 129.447 121.326C129.655 122.697 129.74 124.668 129.702 127.239H108.068C108.183 130.226 109.218 132.321 111.173 133.524C112.359 134.273 113.786 134.647 115.454 134.646C117.224 134.646 118.661 134.19 119.767 133.279C120.43 132.709 120.974 132.012 121.365 131.229H129.293C129.083 132.996 128.124 134.79 126.414 136.611C123.754 139.505 120.03 140.952 115.241 140.952C111.287 140.952 107.8 139.73 104.78 137.287C101.76 134.843 100.249 130.867 100.248 125.36C100.248 120.2 101.611 116.242 104.339 113.489C107.066 110.735 110.606 109.359 114.959 109.36C117.547 109.364 119.876 109.831 121.948 110.761ZM110.33 117.491C109.233 118.625 108.54 120.162 108.253 122.101H121.631C121.492 120.033 120.799 118.464 119.554 117.394C118.309 116.323 116.774 115.788 114.949 115.788C112.966 115.788 111.427 116.355 110.33 117.491Z" fill="#696969"/><path d="M148.732 109.462C148.833 109.462 149.056 109.485 149.401 109.502V117.489C148.91 117.436 148.474 117.399 148.094 117.38C147.711 117.362 147.401 117.354 147.166 117.354C144.042 117.354 141.944 118.373 140.873 120.413C140.273 121.561 139.973 123.329 139.973 125.716V139.953H132.153V110.158H139.564V115.35C140.763 113.366 141.808 112.009 142.698 111.278C144.151 110.058 146.04 109.448 148.365 109.448C148.488 109.447 148.61 109.451 148.732 109.462Z" fill="#696969"/><path d="M153.728 145.659L154.708 145.713C155.436 145.751 156.165 145.724 156.888 145.631C157.511 145.565 158.11 145.35 158.633 145.003C159.086 144.694 159.509 144.047 159.9 143.063C160.291 142.079 160.459 141.478 160.404 141.259L149.498 110.158H158.136L164.621 132.131L170.751 110.158H179.007L168.817 139.455C166.855 145.104 165.297 148.607 164.143 149.963C162.989 151.32 160.698 151.999 157.269 152C156.576 152 156.022 152 155.605 151.986C155.188 151.972 154.566 151.944 153.723 151.891L153.728 145.659Z" fill="#696969"/><path opacity="0.48" d="M67.3749 60.3801L77.1265 75.0189L67.0287 90.1144H67.8873L78.0596 75.0189L68.2769 60.3801H67.3749Z" fill="#696969"/><path opacity="0.48" d="M66.1891 60.3801L75.939 75.0189L65.8429 90.1144H66.6998L76.8738 75.0189L67.0911 60.3801H66.1891Z" fill="#696969"/><path opacity="0.48" d="M65.687 60.3801L75.4369 75.0189L65.2456 90.1144H65.5053L75.6793 75.0189L65.8965 60.3801H65.687Z" fill="#696969"/><path opacity="0.48" d="M65.3114 60.3801L75.0613 75.0189L64.87 90.1144H65.1297L75.3037 75.0189L65.5209 60.3801H65.3114Z" fill="#696969"/></g><defs><clipPath id="clip0"><rect width="179" height="152" fill="white"/></clipPath></defs></svg>
