<svg width="27" height="27" viewBox="0 0 27 27" fill="none" xmlns="http://www.w3.org/2000/svg"><path fill-rule="evenodd" clip-rule="evenodd" d="M3 1H24C25.1046 1 26 1.89543 26 3V24C26 25.1046 25.1046 26 24 26H3C1.89543 26 1 25.1046 1 24V3C1 1.89543 1.89543 1 3 1ZM0 3C0 1.34315 1.34315 0 3 0H24C25.6569 0 27 1.34315 27 3V24C27 25.6569 25.6569 27 24 27H3C1.34315 27 0 25.6569 0 24V3ZM10.702 10.52V17H11.314V11.222H11.332L13.465 17H14.041L16.165 11.222H16.183V17H16.795V10.52H15.868L13.78 16.235H13.762L11.638 10.52H10.702Z" fill="#363636"/></svg>
