<svg width="34" height="46" viewBox="0 0 34 46" fill="none" xmlns="http://www.w3.org/2000/svg"><g clip-path="url(#clip0)"><path d="M9.92107 27.8255V26.262C9.69356 26.1645 9.49932 26.0003 9.36275 25.7903C9.22616 25.5802 9.15333 25.3336 9.15339 25.0814V23.4805C9.15322 23.2282 9.22601 22.9815 9.36261 22.7715C9.4992 22.5614 9.6935 22.3973 9.92107 22.2998V20.2228C4.93367 20.2917 -0.00341017 22.5771 1.76744e-06 26.9954V29.048C3.23851 28.2376 6.56051 27.8277 9.89463 27.8272L9.92107 27.8255Z" fill="#363636"/><path d="M10.896 20.235V22.3024C11.0433 22.3667 11.1773 22.459 11.2909 22.5745C11.4075 22.6933 11.4999 22.8346 11.5628 22.99C11.6257 23.1455 11.658 23.3122 11.6577 23.4805V25.0814C11.6577 25.3324 11.5855 25.5778 11.45 25.7871C11.3146 25.9964 11.1219 26.1604 10.896 26.2586V27.8386C14.0127 27.924 17.1131 28.3286 20.1509 29.0463V26.9919C20.1466 22.6765 15.6437 20.4451 10.896 20.235Z" fill="#363636"/><path d="M9.89634 28.823C6.56045 28.8226 3.23722 29.2423 0.00170898 30.0726V35.7003C0.00170898 38.4319 1.06323 41.0517 2.95275 42.9833C4.84226 44.9149 7.40499 46 10.0772 46C12.7494 46 15.3121 44.9149 17.2016 42.9833C19.0911 41.0517 20.1526 38.4319 20.1526 35.7003V30.0691C16.8607 29.2732 13.4922 28.8555 10.1096 28.8239L9.89634 28.823Z" fill="#363636"/><path d="M25.4812 0.320895C22.6869 -0.35314 19.9368 0.0436073 17.9443 1.40999C16.0917 2.67045 14.7351 4.56014 14.1144 6.74471C12.7641 7.12751 11.656 8.54185 10.902 10.8508C10.1343 13.2113 9.80251 16.2928 9.95178 19.7606L10.9267 19.7162C10.7826 16.3695 11.0973 13.4127 11.8275 11.1665C12.3487 9.57077 13.0464 8.46337 13.8363 7.95501C13.7615 8.39293 13.7114 8.83488 13.6862 9.27866C13.5326 11.9687 14.3046 14.691 15.5209 15.7531C16.3364 16.4637 17.4342 16.5561 18.4586 15.9998C19.5726 15.3955 20.6022 13.9385 20.3923 12.0454C20.2149 10.4349 19.2271 8.81913 17.7481 7.72132C16.8951 7.08652 15.9901 6.71681 15.1635 6.64967C15.2949 6.26162 15.4513 5.88293 15.6318 5.5161C16.2874 4.18988 17.2699 3.06134 18.4825 2.24185C20.2541 1.02981 22.7218 0.684506 25.2535 1.29489C28.5179 2.07966 31.395 4.33981 33.1487 7.48589L33.9966 6.99322C32.1149 3.603 29.0092 1.17194 25.4812 0.320895ZM17.1783 8.52789C18.4177 9.4487 19.2775 10.8404 19.4233 12.157C19.5811 13.5845 18.8262 14.6736 18.0014 15.1217C17.3344 15.4845 16.6605 15.4391 16.1547 14.9971C15.3017 14.2541 14.5118 11.9356 14.6603 9.3397C14.6921 8.76706 14.77 8.19806 14.8931 7.63848C15.5823 7.63587 16.4055 7.95327 17.1783 8.52789Z" fill="#363636"/></g><defs><clipPath id="clip0"><rect width="34" height="46" fill="white"/></clipPath></defs></svg>
