<svg width="46" height="64" viewBox="0 0 46 64" fill="none" xmlns="http://www.w3.org/2000/svg"><g clip-path="url(#clip0)"><path fill-rule="evenodd" clip-rule="evenodd" d="M14.1007 6.79659H32.9738C34.9614 6.79659 36.5726 8.39238 36.5726 10.3609V55.7052C36.5726 57.6737 34.9614 59.2695 32.9738 59.2695H14.1007C12.1132 59.2695 10.502 57.6737 10.502 55.7052V10.3609C10.502 8.39238 12.1132 6.79659 14.1007 6.79659ZM14.5972 7.24313H32.4135C34.4011 7.24313 36.0123 8.83892 36.0123 10.8074V55.1212C36.0123 57.0897 34.4011 58.6855 32.4135 58.6855H14.5972C12.6096 58.6855 10.9984 57.0897 10.9984 55.1212V10.8074C10.9984 8.83892 12.6096 7.24313 14.5972 7.24313Z" fill="#363636"/><path d="M20.6582 41.3256C18.3969 41.3256 16.1599 41.2394 14.0368 41.0637C10.2544 40.75 7.00434 40.1633 4.63699 39.3663C1.98775 38.4765 0.457056 37.3453 0.0887012 36.01C-0.343667 34.4484 0.839448 32.6688 3.60436 30.7206L3.7015 30.8563C1.0006 32.76 -0.160618 34.479 0.250973 35.9661C0.604729 37.2452 2.09893 38.3353 4.69201 39.2084C7.04701 40.0009 10.283 40.5848 14.0519 40.8974C20.3769 41.4218 27.7153 41.1488 33.6814 40.1672C40.318 39.0755 44.5434 37.2563 45.5788 35.0451C46.178 33.766 45.7102 32.3545 44.1891 30.8474L44.3081 30.7295C45.8849 32.2911 46.3638 33.7666 45.7321 35.1152C44.672 37.3781 40.4022 39.2306 33.7095 40.3318C29.7312 40.9853 25.1469 41.3256 20.6582 41.3256Z" fill="#363636"/><path d="M43.9875 30.5221L44.0532 31.4297L44.8898 30.6945L43.9875 30.5221Z" fill="#363636"/><path d="M25.0435 64C24.6941 63.9993 24.3475 63.9374 24.0199 63.817C22.3005 63.1958 19.8085 60.6181 17.691 51.8706C16.1974 45.6974 15.2288 37.5678 15.0323 29.5694C14.8554 22.3423 15.3164 15.578 16.3305 10.5227C16.883 7.76982 17.5939 5.51189 18.444 3.81232C19.3604 1.97706 20.4413 0.793601 21.6565 0.286958C23.5752 -0.513327 25.8117 0.367599 28.3121 2.90471L28.1914 3.02094C25.7471 0.537776 23.5701 -0.330356 21.7216 0.440453C18.8388 1.64283 17.2856 6.6047 16.4961 10.555C15.4854 15.5991 15.0238 22.3501 15.2007 29.5649C15.3967 37.5528 16.3642 45.6691 17.8544 51.8322C18.6479 55.1134 19.5659 57.7868 20.5834 59.7817C21.6688 61.91 22.8446 63.2153 24.0777 63.6607C25.4692 64.164 26.9415 63.5606 28.4525 61.8677L28.5788 61.979C27.3772 63.3232 26.1924 64 25.0435 64Z" fill="#363636"/><path d="M28.8164 3.61656L27.576 3.25841L28.6036 2.35413L28.8164 3.61656Z" fill="#363636"/></g><defs><clipPath id="clip0"><rect width="46" height="64" fill="white"/></clipPath></defs></svg>
