<svg width="27" height="27" viewBox="0 0 27 27" fill="none" xmlns="http://www.w3.org/2000/svg"><rect x="0.5" y="0.5" width="25.779" height="25.779" rx="2.5" stroke="#363636"/><path d="M10.981 14.065C11.005 14.353 11.068 14.599 11.17 14.803C11.278 15.001 11.413 15.163 11.575 15.289C11.743 15.415 11.935 15.508 12.151 15.568C12.367 15.622 12.598 15.649 12.844 15.649C13.132 15.649 13.381 15.613 13.591 15.541C13.801 15.469 13.972 15.373 14.104 15.253C14.236 15.127 14.332 14.983 14.392 14.821C14.458 14.659 14.491 14.488 14.491 14.308C14.491 14.056 14.434 13.852 14.32 13.696C14.206 13.54 14.056 13.414 13.87 13.318C13.69 13.216 13.48 13.135 13.24 13.075C13.006 13.015 12.763 12.958 12.511 12.904C12.265 12.844 12.022 12.775 11.782 12.697C11.548 12.619 11.338 12.514 11.152 12.382C10.972 12.25 10.825 12.082 10.711 11.878C10.597 11.668 10.54 11.404 10.54 11.086C10.54 10.864 10.585 10.648 10.675 10.438C10.771 10.228 10.909 10.042 11.089 9.88C11.275 9.718 11.506 9.589 11.782 9.493C12.058 9.397 12.376 9.349 12.736 9.349C13.102 9.349 13.42 9.4 13.69 9.502C13.966 9.604 14.194 9.745 14.374 9.925C14.554 10.099 14.689 10.303 14.779 10.537C14.869 10.771 14.914 11.02 14.914 11.284H14.329C14.329 11.038 14.284 10.825 14.194 10.645C14.11 10.465 13.993 10.318 13.843 10.204C13.693 10.09 13.522 10.006 13.33 9.952C13.138 9.898 12.94 9.871 12.736 9.871C12.424 9.871 12.16 9.916 11.944 10.006C11.734 10.09 11.566 10.201 11.44 10.339C11.314 10.477 11.227 10.63 11.179 10.798C11.131 10.966 11.122 11.134 11.152 11.302C11.188 11.512 11.272 11.68 11.404 11.806C11.536 11.932 11.698 12.037 11.89 12.121C12.082 12.199 12.292 12.265 12.52 12.319C12.754 12.367 12.991 12.421 13.231 12.481C13.471 12.535 13.702 12.601 13.924 12.679C14.152 12.757 14.353 12.862 14.527 12.994C14.701 13.126 14.839 13.297 14.941 13.507C15.049 13.711 15.103 13.969 15.103 14.281C15.103 14.881 14.896 15.346 14.482 15.676C14.068 16.006 13.486 16.171 12.736 16.171C12.4 16.171 12.088 16.126 11.8 16.036C11.512 15.952 11.263 15.823 11.053 15.649C10.843 15.469 10.678 15.25 10.558 14.992C10.444 14.728 10.387 14.419 10.387 14.065H10.981Z" fill="#363636"/></svg>
