<svg width="27" height="27" viewBox="0 0 27 27" fill="none" xmlns="http://www.w3.org/2000/svg"><path fill-rule="evenodd" clip-rule="evenodd" d="M3 1H24C25.1046 1 26 1.89543 26 3V24C26 25.1046 25.1046 26 24 26H3C1.89543 26 1 25.1046 1 24V3C1 1.89543 1.89543 1 3 1ZM0 3C0 1.34315 1.34315 0 3 0H24C25.6569 0 27 1.34315 27 3V24C27 25.6569 25.6569 27 24 27H3C1.34315 27 0 25.6569 0 24V3ZM15.832 15.136H15.814L14.338 9.52H13.654L12.151 15.136H12.133L10.738 9.52H10.126L11.8 16H12.475L13.978 10.276H13.996L15.499 16H16.174L17.875 9.52H17.245L15.832 15.136Z" fill="#363636"/></svg>
