<svg width="266" height="50" viewBox="0 0 266 50" fill="none" xmlns="http://www.w3.org/2000/svg">
<g clip-path="url(#clip0)">
<path d="M4.21745 0L20.6262 24.6172L3.63306 50H5.07643L22.1998 24.6172L5.73475 0H4.21745Z" fill="#6A6A6A"/>
<path d="M266 0H6.79791L23.2101 24.6172L6.21704 50H266" fill="#6A6A6A"/>
<path d="M2.21783 0L18.6301 24.6172L1.63696 50H3.08034L20.2002 24.6172L3.73866 0H2.21783Z" fill="#6A6A6A"/>
<path d="M1.37296 0L17.7852 24.6172L0.633667 50H1.0702L18.19 24.6172L1.72852 0H1.37296Z" fill="#6A6A6A"/>
<path d="M0.74281 0L17.1515 24.6172L0 50H0.436533L17.5599 24.6172L1.09485 0H0.74281Z" fill="#6A6A6A"/>
</g>
<defs>
<clipPath id="clip0">
<rect width="266" height="50" fill="white"/>
</clipPath>
</defs>
</svg>
