<svg width="27" height="27" viewBox="0 0 27 27" fill="none" xmlns="http://www.w3.org/2000/svg">
<rect x="0.505493" y="0.599457" width="25.779" height="25.779" rx="2.5" stroke="#363636"/>
<path d="M5.80078 17.0608V10.5808H10.1118V11.1028H6.41278V13.4428H9.75178V13.9648H6.41278V16.5388H10.2018V17.0608H5.80078ZM11.1047 15.1258C11.1287 15.4138 11.1917 15.6598 11.2937 15.8638C11.4017 16.0618 11.5367 16.2238 11.6987 16.3498C11.8667 16.4758 12.0587 16.5688 12.2747 16.6288C12.4907 16.6828 12.7217 16.7098 12.9677 16.7098C13.2557 16.7098 13.5047 16.6738 13.7147 16.6018C13.9247 16.5298 14.0957 16.4338 14.2277 16.3138C14.3597 16.1878 14.4557 16.0438 14.5157 15.8818C14.5817 15.7198 14.6147 15.5488 14.6147 15.3688C14.6147 15.1168 14.5577 14.9128 14.4437 14.7568C14.3297 14.6008 14.1797 14.4748 13.9937 14.3788C13.8137 14.2768 13.6037 14.1958 13.3637 14.1358C13.1297 14.0758 12.8867 14.0188 12.6347 13.9648C12.3887 13.9048 12.1457 13.8358 11.9057 13.7578C11.6717 13.6798 11.4617 13.5748 11.2757 13.4428C11.0957 13.3108 10.9487 13.1428 10.8347 12.9388C10.7207 12.7288 10.6637 12.4648 10.6637 12.1468C10.6637 11.9248 10.7087 11.7088 10.7987 11.4988C10.8947 11.2888 11.0327 11.1028 11.2127 10.9408C11.3987 10.7788 11.6297 10.6498 11.9057 10.5538C12.1817 10.4578 12.4997 10.4098 12.8597 10.4098C13.2257 10.4098 13.5437 10.4608 13.8137 10.5628C14.0897 10.6648 14.3177 10.8058 14.4977 10.9858C14.6777 11.1598 14.8127 11.3638 14.9027 11.5978C14.9927 11.8318 15.0377 12.0808 15.0377 12.3448H14.4527C14.4527 12.0988 14.4077 11.8858 14.3177 11.7058C14.2337 11.5258 14.1167 11.3788 13.9667 11.2648C13.8167 11.1508 13.6457 11.0668 13.4537 11.0128C13.2617 10.9588 13.0637 10.9318 12.8597 10.9318C12.5477 10.9318 12.2837 10.9768 12.0677 11.0668C11.8577 11.1508 11.6897 11.2618 11.5637 11.3998C11.4377 11.5378 11.3507 11.6908 11.3027 11.8588C11.2547 12.0268 11.2457 12.1948 11.2757 12.3628C11.3117 12.5728 11.3957 12.7408 11.5277 12.8668C11.6597 12.9928 11.8217 13.0978 12.0137 13.1818C12.2057 13.2598 12.4157 13.3258 12.6437 13.3798C12.8777 13.4278 13.1147 13.4818 13.3547 13.5418C13.5947 13.5958 13.8257 13.6618 14.0477 13.7398C14.2757 13.8178 14.4767 13.9228 14.6507 14.0548C14.8247 14.1868 14.9627 14.3578 15.0647 14.5678C15.1727 14.7718 15.2267 15.0298 15.2267 15.3418C15.2267 15.9418 15.0197 16.4068 14.6057 16.7368C14.1917 17.0668 13.6097 17.2318 12.8597 17.2318C12.5237 17.2318 12.2117 17.1868 11.9237 17.0968C11.6357 17.0128 11.3867 16.8838 11.1767 16.7098C10.9667 16.5298 10.8017 16.3108 10.6817 16.0528C10.5677 15.7888 10.5107 15.4798 10.5107 15.1258H11.1047ZM20.5037 12.4618C20.3777 11.9098 20.1437 11.5168 19.8017 11.2828C19.4597 11.0488 19.0127 10.9318 18.4607 10.9318C18.0707 10.9318 17.7347 11.0098 17.4527 11.1658C17.1707 11.3218 16.9367 11.5318 16.7507 11.7958C16.5707 12.0598 16.4357 12.3658 16.3457 12.7138C16.2617 13.0558 16.2197 13.4188 16.2197 13.8028C16.2197 14.1628 16.2557 14.5168 16.3277 14.8648C16.4057 15.2128 16.5317 15.5248 16.7057 15.8008C16.8797 16.0708 17.1137 16.2898 17.4077 16.4578C17.7017 16.6258 18.0707 16.7098 18.5147 16.7098C18.7907 16.7098 19.0427 16.6648 19.2707 16.5748C19.4987 16.4848 19.6967 16.3618 19.8647 16.2058C20.0387 16.0438 20.1827 15.8548 20.2967 15.6388C20.4167 15.4228 20.5067 15.1858 20.5667 14.9278H21.2057C21.1337 15.2398 21.0287 15.5368 20.8907 15.8188C20.7527 16.0948 20.5697 16.3378 20.3417 16.5478C20.1197 16.7578 19.8467 16.9258 19.5227 17.0518C19.2047 17.1718 18.8297 17.2318 18.3977 17.2318C17.8997 17.2318 17.4737 17.1418 17.1197 16.9618C16.7657 16.7758 16.4747 16.5268 16.2467 16.2148C16.0247 15.9028 15.8627 15.5428 15.7607 15.1348C15.6587 14.7208 15.6077 14.2828 15.6077 13.8208C15.6077 13.2028 15.6827 12.6778 15.8327 12.2458C15.9887 11.8138 16.2017 11.4628 16.4717 11.1928C16.7417 10.9168 17.0597 10.7188 17.4257 10.5988C17.7917 10.4728 18.1907 10.4098 18.6227 10.4098C18.9527 10.4098 19.2587 10.4548 19.5407 10.5448C19.8287 10.6288 20.0807 10.7578 20.2967 10.9318C20.5187 11.1058 20.6987 11.3218 20.8367 11.5798C20.9807 11.8318 21.0797 12.1258 21.1337 12.4618H20.5037Z" fill="#363636"/>
</svg>
