<svg width="27" height="27" viewBox="0 0 27 27" fill="none" xmlns="http://www.w3.org/2000/svg">
<rect x="0.5" y="0.5" width="26" height="26" rx="2.5" stroke="#363636"/>
<path d="M8 12.625C7.79289 12.625 7.625 12.7929 7.625 13C7.625 13.2071 7.79289 13.375 8 13.375V12.625ZM18.2652 13.2652C18.4116 13.1187 18.4116 12.8813 18.2652 12.7348L15.8787 10.3483C15.7322 10.2019 15.4948 10.2019 15.3483 10.3483C15.2019 10.4948 15.2019 10.7322 15.3483 10.8787L17.4697 13L15.3483 15.1213C15.2019 15.2678 15.2019 15.5052 15.3483 15.6517C15.4948 15.7981 15.7322 15.7981 15.8787 15.6517L18.2652 13.2652ZM8 13.375L18 13.375V12.625L8 12.625V13.375Z" fill="black"/>
</svg>
