<svg width="27" height="27" viewBox="0 0 27 27" fill="none" xmlns="http://www.w3.org/2000/svg">
<rect x="0.5" y="0.5" width="26" height="26" rx="2.5" stroke="#363636"/>
<path d="M12.625 18C12.625 18.2071 12.7929 18.375 13 18.375C13.2071 18.375 13.375 18.2071 13.375 18H12.625ZM13.2652 7.73483C13.1187 7.58839 12.8813 7.58839 12.7348 7.73483L10.3483 10.1213C10.2019 10.2678 10.2019 10.5052 10.3483 10.6517C10.4948 10.7981 10.7322 10.7981 10.8787 10.6517L13 8.53033L15.1213 10.6517C15.2678 10.7981 15.5052 10.7981 15.6517 10.6517C15.7981 10.5052 15.7981 10.2678 15.6517 10.1213L13.2652 7.73483ZM13.375 18L13.375 8H12.625L12.625 18H13.375Z" fill="black"/>
</svg>
